<svg width="20" height="20" viewBox="0 0 20 20" fill="none" xmlns="http://www.w3.org/2000/svg">
<g id="material-symbols:date-range">
<path id="Vector" d="M6.66667 11.668C6.43056 11.668 6.23278 11.588 6.07333 11.428C5.91389 11.268 5.83389 11.0702 5.83333 10.8346C5.83333 10.5985 5.91333 10.4007 6.07333 10.2413C6.23333 10.0819 6.43111 10.0019 6.66667 10.0013C6.90278 10.0013 7.10083 10.0813 7.26083 10.2413C7.42083 10.4013 7.50056 10.5991 7.5 10.8346C7.5 11.0707 7.42 11.2688 7.26 11.4288C7.1 11.5888 6.90222 11.6685 6.66667 11.668ZM10 11.668C9.76389 11.668 9.56611 11.588 9.40667 11.428C9.24722 11.268 9.16722 11.0702 9.16667 10.8346C9.16667 10.5985 9.24667 10.4007 9.40667 10.2413C9.56667 10.0819 9.76444 10.0019 10 10.0013C10.2361 10.0013 10.4342 10.0813 10.5942 10.2413C10.7542 10.4013 10.8339 10.5991 10.8333 10.8346C10.8333 11.0707 10.7533 11.2688 10.5933 11.4288C10.4333 11.5888 10.2356 11.6685 10 11.668ZM13.3333 11.668C13.0972 11.668 12.8994 11.588 12.74 11.428C12.5806 11.268 12.5006 11.0702 12.5 10.8346C12.5 10.5985 12.58 10.4007 12.74 10.2413C12.9 10.0819 13.0978 10.0019 13.3333 10.0013C13.5694 10.0013 13.7675 10.0813 13.9275 10.2413C14.0875 10.4013 14.1672 10.5991 14.1667 10.8346C14.1667 11.0707 14.0867 11.2688 13.9267 11.4288C13.7667 11.5888 13.5689 11.6685 13.3333 11.668ZM4.16667 18.3346C3.70833 18.3346 3.31611 18.1716 2.99 17.8455C2.66389 17.5194 2.50056 17.1269 2.5 16.668V5.0013C2.5 4.54297 2.66333 4.15075 2.99 3.82463C3.31667 3.49852 3.70889 3.33519 4.16667 3.33464H5V1.66797H6.66667V3.33464H13.3333V1.66797H15V3.33464H15.8333C16.2917 3.33464 16.6842 3.49797 17.0108 3.82463C17.3375 4.1513 17.5006 4.54352 17.5 5.0013V16.668C17.5 17.1263 17.3369 17.5188 17.0108 17.8455C16.6847 18.1721 16.2922 18.3352 15.8333 18.3346H4.16667ZM4.16667 16.668H15.8333V8.33463H4.16667V16.668Z" fill="#676767" fill-opacity="0.7"/>
</g>
</svg>
