<svg width="50" height="50" viewBox="0 0 50 50" fill="none" xmlns="http://www.w3.org/2000/svg">
<g id="fluent:clock-alarm-20-filled">
<path id="Vector" d="M19.4075 8.4125C18.6825 7.36053 17.7128 6.50037 16.5819 5.90595C15.451 5.31154 14.1926 5.00064 12.915 5C8.53501 5 5.00001 8.575 5.00001 12.9675C4.99799 14.2479 5.30431 15.51 5.89307 16.6471C6.48182 17.7841 7.3357 18.7627 8.38251 19.5C7.79628 21.2744 7.49834 23.1313 7.50001 25C7.50001 29.3825 9.11001 33.39 11.775 36.46L7.86501 40.3675C7.74895 40.4837 7.65693 40.6217 7.59418 40.7734C7.53143 40.9252 7.4992 41.0879 7.49932 41.2521C7.49943 41.4164 7.5319 41.579 7.59486 41.7307C7.65782 41.8824 7.75004 42.0202 7.86626 42.1363C7.98248 42.2523 8.12042 42.3443 8.27221 42.4071C8.42399 42.4698 8.58665 42.5021 8.75089 42.5019C8.91514 42.5018 9.07775 42.4694 9.22945 42.4064C9.38114 42.3434 9.51895 42.2512 9.63501 42.135L13.54 38.2275C16.7187 40.989 20.7894 42.5066 25 42.5C29.211 42.5059 33.2817 40.9874 36.46 38.225L40.365 42.1325C40.4811 42.2487 40.6189 42.3409 40.7706 42.4039C40.9223 42.4669 41.0849 42.4993 41.2491 42.4995C41.4134 42.4996 41.576 42.4673 41.7278 42.4046C41.8796 42.3418 42.0175 42.2498 42.1338 42.1338C42.25 42.0177 42.3422 41.8799 42.4052 41.7282C42.4681 41.5765 42.5006 41.4139 42.5007 41.2496C42.5008 41.0854 42.4686 40.9227 42.4058 40.771C42.3431 40.6192 42.2511 40.4812 42.135 40.365L38.2275 36.46C40.989 33.2814 42.5066 29.2106 42.5 25C42.5 23.0625 42.185 21.1975 41.6025 19.455C42.6524 18.7232 43.5098 17.7482 44.1014 16.6133C44.693 15.4785 45.0013 14.2173 45 12.9375C45.001 11.8959 44.7968 10.8643 44.399 9.90167C44.0012 8.93902 43.4177 8.06416 42.6818 7.32706C41.9459 6.58996 41.0719 6.00507 40.1099 5.60579C39.1479 5.2065 38.1166 5.00066 37.075 5C34.38 5 32 6.35 30.57 8.405C28.7746 7.80365 26.8934 7.49801 25 7.5C23.045 7.5 21.165 7.82 19.4075 8.4125ZM12.915 7.5C14.5575 7.5 16.035 8.24 17.03 9.415C13.7317 11.1078 11.0531 13.8004 9.37751 17.1075C8.7863 16.5922 8.3127 15.9558 7.98878 15.2416C7.66486 14.5273 7.49818 13.7518 7.50001 12.9675C7.50001 9.9375 9.93251 7.5 12.915 7.5ZM32.9525 9.4075C33.95 8.2375 35.4275 7.5 37.0775 7.5C40.07 7.5 42.5 9.9325 42.5 12.9375C42.5 14.59 41.765 16.07 40.605 17.07C38.9249 13.7744 36.2479 11.0929 32.955 9.4075H32.9525ZM23.75 15C24.0815 15 24.3995 15.1317 24.6339 15.3661C24.8683 15.6005 25 15.9185 25 16.25V25H31.25C31.5815 25 31.8995 25.1317 32.1339 25.3661C32.3683 25.6005 32.5 25.9185 32.5 26.25C32.5 26.5815 32.3683 26.8995 32.1339 27.1339C31.8995 27.3683 31.5815 27.5 31.25 27.5H23.75C23.4185 27.5 23.1005 27.3683 22.8661 27.1339C22.6317 26.8995 22.5 26.5815 22.5 26.25V16.25C22.5 15.9185 22.6317 15.6005 22.8661 15.3661C23.1005 15.1317 23.4185 15 23.75 15Z" fill="#ED257D"/>
</g>
</svg>
