<svg width="70" height="70" viewBox="0 0 70 70" fill="none" xmlns="http://www.w3.org/2000/svg">
<g id="room-mate">
<path id="Vector" d="M45.5078 11.7109V5.8776C45.5078 5.23594 46.0328 4.71094 46.6745 4.71094H52.5078C53.1495 4.71094 53.6745 5.23594 53.6745 5.8776V18.6759L45.5078 11.7109Z" fill="#DB4642"/>
<path id="Vector_2" d="M60.6712 65.3828V28.0495L35.0046 5.88281L9.33789 28.0495V65.3828H60.6712Z" fill="#E8E8E8"/>
<path id="Vector_3" d="M68.359 30.3815H60.6695L35.004 8.77484L9.33613 30.3815H1.64897C1.20563 30.3815 0.995634 29.8215 1.34563 29.5298L34.234 1.49484C34.6773 1.12151 35.3306 1.12151 35.774 1.49484L68.674 29.5415C69.0006 29.8215 68.8023 30.3815 68.359 30.3815Z" fill="#EF564B"/>
<path id="Vector_4" d="M32.6693 41.9987V38.4987C32.6693 33.9884 29.0129 30.332 24.5026 30.332C19.9923 30.332 16.3359 33.9884 16.3359 38.4987V41.9987H32.6693Z" fill="#7A392E"/>
<path id="Vector_5" d="M35.0019 65.3307V55.9157C35.0019 53.4307 33.4036 51.2491 31.0353 50.4907L27.197 49.2891H21.807L17.9686 50.4907C15.6003 51.2491 14.002 53.4307 14.002 55.9157V65.3307H35.0019Z" fill="#3E7EFC"/>
<path id="Vector_6" d="M53.6673 41.9987V38.4987C53.6673 33.9884 50.011 30.332 45.5007 30.332C40.9903 30.332 37.334 33.9884 37.334 38.4987V41.9987H53.6673Z" fill="#7A392E"/>
<path id="Vector_7" d="M56 65.3307V55.9157C56 53.4307 54.4017 51.2491 52.0333 50.4907L48.195 49.2891H42.805L38.9667 50.4907C36.5983 51.2491 35 53.4307 35 55.9157V65.3307H56Z" fill="#F4AD3B"/>
<path id="Vector_8" d="M17.9693 40.3707C17.0651 40.3707 16.3359 41.0998 16.3359 42.004C16.3359 42.9082 17.0651 43.6373 17.9693 43.6373L18.2574 45.3628C18.4418 46.4688 19.0671 47.4512 19.9969 48.0777C21.1018 48.8232 22.7211 50.1707 24.5026 50.1707C26.2841 50.1707 27.9023 48.8232 29.0083 48.0777C29.9381 47.4512 30.5623 46.4688 30.7478 45.3628L31.0359 43.6373C31.9401 43.6373 32.6693 42.9082 32.6693 42.004C32.6693 41.0998 31.9401 40.3707 31.0359 40.3707C31.0359 39.2903 30.3791 38.3687 29.5006 38.2438C28.2698 38.0688 26.5023 37.6582 24.9716 36.6968C24.6788 36.5125 24.3253 36.5125 24.0313 36.6968C22.5006 37.6582 20.7331 38.0688 19.5023 38.2438C18.6238 38.3687 17.9669 39.2892 17.9669 40.3707H17.9693Z" fill="#FFAC9C"/>
<path id="Vector_9" d="M38.9673 40.3707C38.0632 40.3707 37.334 41.0998 37.334 42.004C37.334 42.9082 38.0632 43.6373 38.9673 43.6373L39.2555 45.3628C39.4398 46.4688 40.0652 47.4512 40.995 48.0777C42.0998 48.8232 43.7192 50.1707 45.5007 50.1707C47.2822 50.1707 48.9003 48.8232 50.0063 48.0777C50.9361 47.4512 51.5603 46.4688 51.7458 45.3628L52.034 43.6373C52.9381 43.6373 53.6673 42.9082 53.6673 42.004C53.6673 41.0998 52.9381 40.3707 52.034 40.3707C52.034 39.2903 51.3772 38.3687 50.4987 38.2438C49.2678 38.0688 47.5003 37.6582 45.9697 36.6968C45.6768 36.5125 45.3233 36.5125 45.0293 36.6968C43.4987 37.6582 41.7312 38.0688 40.5003 38.2438C39.6218 38.3687 38.965 39.2892 38.965 40.3707H38.9673Z" fill="#BC674A"/>
<path id="Vector_10" d="M65.3372 64.2188H4.67057C4.02624 64.2188 3.50391 64.7411 3.50391 65.3854V67.7188C3.50391 68.3631 4.02624 68.8854 4.67057 68.8854H65.3372C65.9816 68.8854 66.5039 68.3631 66.5039 67.7188V65.3854C66.5039 64.7411 65.9816 64.2188 65.3372 64.2188Z" fill="#384149"/>
</g>
</svg>
