<svg width="50" height="50" viewBox="0 0 50 50" fill="none" xmlns="http://www.w3.org/2000/svg">
<g id="noun-question-96047 1">
<g id="Group">
<path id="Vector" d="M19.7948 14.348C19.327 14.2346 18.8467 14.1548 18.3533 14.1167C19.4968 7.53147 25.2399 2.5 32.1492 2.5C39.8762 2.5 46.1646 8.78834 46.1646 16.517C46.1646 24.2423 39.8768 30.5312 32.1492 30.5312C29.5985 30.5312 27.2112 29.8361 25.1487 28.6396C25.4336 28.2448 25.6792 27.8243 25.8968 27.3913C27.7382 28.4539 29.8708 29.0686 32.1492 29.0686C39.082 29.0686 44.702 23.4486 44.702 16.517C44.702 9.58315 39.082 3.96312 32.1492 3.96312C25.9572 3.96312 20.8249 8.44991 19.7948 14.348ZM25.6472 23.3119C25.6472 18.894 22.0527 15.2995 17.6331 15.2995C13.2136 15.2995 9.61901 18.894 9.61901 23.3119C9.61901 25.8581 10.8098 28.1998 12.8865 29.7352L13.8904 30.4771L12.6871 30.8121C5.43191 32.825 3.8178 39.1327 3.75 48.0168H31.4627C31.3949 39.1236 29.7888 32.813 22.5746 30.8115L21.3701 30.4765L22.3757 29.7347C24.4548 28.1992 25.6472 25.8581 25.6472 23.3119ZM32.1492 7.58332C28.3621 7.58332 25.2815 10.664 25.2815 14.4511C25.2815 15.4596 26.0991 16.2789 27.1087 16.2789C27.6117 16.2789 28.0698 16.0737 28.402 15.7416C28.7313 15.4117 28.9358 14.9553 28.9358 14.4505C28.9358 12.6792 30.3779 11.2377 32.1504 11.2377C33.9212 11.2377 35.3615 12.6792 35.3615 14.4505C35.3615 16.2219 33.9217 17.6634 32.1504 17.6634C31.645 17.6634 31.1886 17.8685 30.8582 18.1984C30.5277 18.5305 30.3215 18.9869 30.3215 19.4917C30.3215 20.4996 31.1408 21.3194 32.1504 21.3194C35.9341 21.3194 39.0165 18.2388 39.0165 14.4511C39.0147 10.664 35.9324 7.58332 32.1492 7.58332ZM32.147 22.5273C31.1311 22.5273 30.305 23.3495 30.305 24.367C30.305 25.3852 31.1311 26.2113 32.147 26.2113C33.1651 26.2113 33.9901 25.3846 33.9901 24.367C33.9901 23.3495 33.1651 22.5273 32.147 22.5273Z" fill="#ED257D"/>
</g>
</g>
</svg>
