<svg width="16" height="27" viewBox="0 0 16 27" fill="none" xmlns="http://www.w3.org/2000/svg">
<path id="Vector" fill-rule="evenodd" clip-rule="evenodd" d="M15.0683 4.82577C14.8149 1.90671 13.0607 1.96722 11.8988 2.06845C10.1662 3.81288 15.9115 5.89491 15.9579 8.14612C16.1784 10.1781 15.5518 11.648 13.6226 12.2542C12.7995 13.965 11.1561 14.8921 9.38369 14.9798V21.3906L10.2176 21.9189V23.5578H9.71715V22.1995L9.38369 21.988V26.4785H10.3845V26.985H8.88302L8.88337 21.6708L3.83573 18.5265L7.42988 14.739C6.63102 14.4999 5.85672 14.0858 5.17098 13.4921C3.13248 13.5259 1.44526 14.3586 0 15.7431C2.36447 7.98267 10.9258 4.07905 13.6781 10.7911C16.6484 6.70613 11.9505 6.81928 10.2864 3.58733C9.06118 0.232337 15.4116 -1.59801 15.3414 1.81864C15.0196 3.07057 15.5981 3.53145 15.0682 4.82565L15.0683 4.82577ZM8.88342 14.9823C8.58868 14.9707 8.29187 14.936 7.99704 14.8788L4.65625 18.3933L8.88335 21.0732L8.88342 14.9823ZM14.6305 1.28408C14.7456 1.28408 14.8391 1.37845 14.8391 1.49487C14.8391 1.61138 14.7455 1.70602 14.6305 1.70602C14.5153 1.70602 14.4218 1.6113 14.4218 1.49487C14.4218 1.37836 14.5154 1.28408 14.6305 1.28408ZM5.82488 10.05C7.64738 11.3729 9.56416 11.7461 11.5121 10.4423L11.6047 10.584C9.59778 11.9269 7.60693 11.5529 5.72696 10.1882L5.82489 10.0499L5.82488 10.05Z" fill="white"/>
</svg>
