<svg width="27" height="27" viewBox="0 0 27 27" fill="none" xmlns="http://www.w3.org/2000/svg">
<g id="roommate">
<g id="Icons">
<g id="Group">
<g id="Group_2">
<path id="Vector" d="M2.53125 17.7188H24.4688V20.25H2.53125V17.7188Z" fill="#00A0C8"/>
</g>
<g id="Group_3">
<path id="Vector_2" d="M10.9688 17.7188V18.5625H9.28125C9.04922 18.5625 8.85938 18.3727 8.85938 18.1406V17.7188H10.9688Z" fill="#0082AA"/>
</g>
<g id="Group_4">
<path id="Vector_3" d="M16.4531 17.7188H18.1406V20.25H16.4531V17.7188Z" fill="#0082AA"/>
</g>
<g id="Group_5">
<path id="Vector_4" d="M23.625 14.7656V18.1406C23.625 18.3727 23.4352 18.5625 23.2031 18.5625H9.70312C9.47109 18.5625 9.28125 18.3727 9.28125 18.1406V14.7656C9.28125 14.5336 9.47109 14.3438 9.70312 14.3438H23.2031C23.4352 14.3438 23.625 14.5336 23.625 14.7656Z" fill="#C80A50"/>
</g>
<g id="Group_6">
<path id="Vector_5" d="M2.53125 6.75H24.4688V9.28125H2.53125V6.75Z" fill="#00A0C8"/>
</g>
<g id="Group_7">
<path id="Vector_6" d="M10.9688 6.75V7.59375H9.28125C9.04922 7.59375 8.85938 7.40391 8.85938 7.17188V6.75H10.9688Z" fill="#0082AA"/>
</g>
<g id="Group_8">
<path id="Vector_7" d="M21.9375 6.75H23.625V9.28125H21.9375V6.75Z" fill="#0082AA"/>
</g>
<g id="Group_9">
<path id="Vector_8" d="M16.4531 6.75H18.1406V9.28125H16.4531V6.75Z" fill="#0082AA"/>
</g>
<g id="Group_10">
<path id="Vector_9" d="M23.625 3.79688V7.17188C23.625 7.40391 23.4352 7.59375 23.2031 7.59375H9.70312C9.47109 7.59375 9.28125 7.40391 9.28125 7.17188V3.79688C9.28125 3.56484 9.47109 3.375 9.70312 3.375H23.2031C23.4352 3.375 23.625 3.56484 23.625 3.79688Z" fill="#C80A50"/>
</g>
<g id="Group_11">
<path id="Vector_10" d="M17.2969 5.90625C16.8328 5.90625 16.4531 6.28594 16.4531 6.75V7.59375H18.1406V6.75C18.1406 6.28594 17.7609 5.90625 17.2969 5.90625ZM22.7812 5.90625C22.3172 5.90625 21.9375 6.28594 21.9375 6.75V7.59375H23.2031C23.4352 7.59375 23.625 7.40391 23.625 7.17188V6.75C23.625 6.28594 23.2453 5.90625 22.7812 5.90625ZM23.2031 14.3438H16.4531V18.5625H23.2031C23.4352 18.5625 23.625 18.3727 23.625 18.1406V14.7656C23.625 14.5336 23.4352 14.3438 23.2031 14.3438ZM21.9375 17.7188H18.1406V15.1875H21.9375V17.7188Z" fill="#A00028"/>
</g>
<g id="Group_12">
<path id="Vector_11" d="M2.53125 25.3125C2.06508 25.3125 1.6875 24.9349 1.6875 24.4688V2.53125C1.6875 2.06508 2.06508 1.6875 2.53125 1.6875C2.99742 1.6875 3.375 2.06508 3.375 2.53125V24.4688C3.375 24.9349 2.99742 25.3125 2.53125 25.3125Z" fill="#FAB400"/>
</g>
<g id="Group_13">
<path id="Vector_12" d="M24.4688 25.3125C24.0026 25.3125 23.625 24.9349 23.625 24.4688V2.53125C23.625 2.06508 24.0026 1.6875 24.4688 1.6875C24.9349 1.6875 25.3125 2.06508 25.3125 2.53125V24.4688C25.3125 24.9349 24.9349 25.3125 24.4688 25.3125Z" fill="#FAB400"/>
</g>
<g id="Group_14">
<path id="Vector_13" d="M2.53125 8.4375H24.4688V10.9688H2.53125V8.4375Z" fill="#FAB400"/>
</g>
<g id="Group_15">
<path id="Vector_14" d="M21.9375 8.4375H23.625V10.9688H21.9375V8.4375Z" fill="#DC9600"/>
</g>
<g id="Group_16">
<path id="Vector_15" d="M16.4531 8.4375H18.1406V10.9688H16.4531V8.4375Z" fill="#DC9600"/>
</g>
<g id="Group_17">
<path id="Vector_16" d="M2.53125 19.4062H24.4688V21.9375H2.53125V19.4062Z" fill="#FAB400"/>
</g>
<g id="Group_18">
<path id="Vector_17" d="M21.9375 19.4062H23.625V21.9375H21.9375V19.4062Z" fill="#DC9600"/>
</g>
<g id="Group_19">
<path id="Vector_18" d="M22.3594 8.4375H24.0469V10.9688H22.3594V8.4375Z" fill="#DC9600"/>
</g>
<g id="Group_20">
<path id="Vector_19" d="M22.3594 19.4062H24.0469V21.9375H22.3594V19.4062Z" fill="#DC9600"/>
</g>
<g id="Group_21">
<path id="Vector_20" d="M16.4531 19.4062H18.1406V21.9375H16.4531V19.4062Z" fill="#DC9600"/>
</g>
<g id="Group_22">
<path id="Vector_21" d="M22.3594 9.28125H23.625V10.9688H22.3594V9.28125Z" fill="#A00028"/>
</g>
<g id="Group_23">
<path id="Vector_22" d="M22.3594 13.5H23.625V15.1875H22.3594V13.5Z" fill="#A00028"/>
</g>
<g id="Group_24">
<path id="Vector_23" d="M22.3594 17.7188H23.625V19.4062H22.3594V17.7188Z" fill="#A00028"/>
</g>
<g id="Group_25">
<path id="Vector_24" d="M22.3594 21.9375H23.625V23.625H22.3594V21.9375Z" fill="#A00028"/>
</g>
<g id="Group_26">
<path id="Vector_25" d="M9.28125 5.90625C9.28125 6.37833 8.89397 6.75 8.4375 6.75H5.0625C4.59844 6.75 4.21875 6.37031 4.21875 5.90625C4.21875 5.67422 4.31156 5.46328 4.46766 5.31141C4.61953 5.15531 4.83047 5.0625 5.0625 5.0625H8.4375C8.89059 5.0625 9.28125 5.4308 9.28125 5.90625Z" fill="#0A5078"/>
</g>
<g id="Group_27">
<path id="Vector_26" d="M9.28125 16.875C9.28125 17.3471 8.89397 17.7188 8.4375 17.7188H5.0625C4.59844 17.7188 4.21875 17.3391 4.21875 16.875C4.21875 16.643 4.31156 16.432 4.46766 16.2802C4.61953 16.1241 4.83047 16.0312 5.0625 16.0312H8.4375C8.89059 16.0312 9.28125 16.3995 9.28125 16.875Z" fill="#0A5078"/>
</g>
<g id="Group_28">
<path id="Vector_27" d="M23.2031 25.3125C22.737 25.3125 22.3594 24.9349 22.3594 24.4688V6.75C22.3594 6.28383 22.737 5.90625 23.2031 5.90625C23.6693 5.90625 24.0469 6.28383 24.0469 6.75V24.4688C24.0469 24.9349 23.6693 25.3125 23.2031 25.3125Z" fill="#C80A50"/>
</g>
<g id="Group_29">
<path id="Vector_28" d="M23.2031 5.90625C22.737 5.90625 22.3594 6.28383 22.3594 6.75V9.28125H18.5625V6.75C18.5625 6.28383 18.1849 5.90625 17.7188 5.90625C17.2526 5.90625 16.875 6.28383 16.875 6.75V24.4688C16.875 24.9345 17.2526 25.3125 17.7188 25.3125C18.1849 25.3125 18.5625 24.9345 18.5625 24.4688V23.625H22.3594V24.4688C22.3594 24.9345 22.737 25.3125 23.2031 25.3125C23.6693 25.3125 24.0469 24.9345 24.0469 24.4688V6.75C24.0469 6.28383 23.6693 5.90625 23.2031 5.90625ZM22.3594 10.9688V13.5H18.5625V10.9688H22.3594ZM22.3594 15.1875V17.7188H18.5625V15.1875H22.3594ZM18.5625 21.9375V19.4062H22.3594V21.9375H18.5625Z" fill="#0A5078"/>
</g>
<g id="Group_30">
<path id="Vector_29" d="M7.59375 5.0625C8.52573 5.0625 9.28125 4.30698 9.28125 3.375C9.28125 2.44302 8.52573 1.6875 7.59375 1.6875C6.66177 1.6875 5.90625 2.44302 5.90625 3.375C5.90625 4.30698 6.66177 5.0625 7.59375 5.0625Z" fill="#F0C8A0"/>
</g>
<g id="Group_31">
<path id="Vector_30" d="M7.59375 16.0312C8.52573 16.0312 9.28125 15.2757 9.28125 14.3438C9.28125 13.4118 8.52573 12.6562 7.59375 12.6562C6.66177 12.6562 5.90625 13.4118 5.90625 14.3438C5.90625 15.2757 6.66177 16.0312 7.59375 16.0312Z" fill="#F0C8A0"/>
</g>
</g>
</g>
</g>
</svg>
