<svg width="27" height="27" viewBox="0 0 27 27" fill="none" xmlns="http://www.w3.org/2000/svg">
<g id="building">
<path id="Vector" d="M4.64062 6.75H12.2344V20.6719H4.64062V6.75Z" fill="#396795"/>
<g id="Group">
<path id="Vector_2" d="M5.90625 8.01562H7.59375V9.70312H5.90625V8.01562Z" fill="#8ACCE7"/>
<path id="Vector_3" d="M9.28125 8.01562H10.9688V9.70312H9.28125V8.01562Z" fill="#8ACCE7"/>
<path id="Vector_4" d="M5.90625 11.3906H7.59375V13.0781H5.90625V11.3906Z" fill="#8ACCE7"/>
<path id="Vector_5" d="M9.28125 11.3906H10.9688V13.0781H9.28125V11.3906Z" fill="#8ACCE7"/>
<path id="Vector_6" d="M5.90625 14.7656H7.59375V16.4531H5.90625V14.7656Z" fill="#8ACCE7"/>
<path id="Vector_7" d="M5.90625 18.1406H7.59375V19.8281H5.90625V18.1406Z" fill="#8ACCE7"/>
</g>
<path id="Vector_8" d="M12.2344 5.48438H4.64062C4.40763 5.48438 4.21875 5.67325 4.21875 5.90625V6.32812C4.21875 6.56112 4.40763 6.75 4.64062 6.75H12.2344C12.4674 6.75 12.6562 6.56112 12.6562 6.32812V5.90625C12.6562 5.67325 12.4674 5.48438 12.2344 5.48438Z" fill="#C4D4E0"/>
<path id="Vector_9" d="M6.32812 3.375H10.5469C10.7707 3.375 10.9853 3.4639 11.1435 3.62213C11.3017 3.78036 11.3906 3.99497 11.3906 4.21875V5.48438H5.48438V4.21875C5.48438 3.99497 5.57327 3.78036 5.7315 3.62213C5.88974 3.4639 6.10435 3.375 6.32812 3.375Z" fill="#396795"/>
<path id="Vector_10" d="M9.28125 14.3438H19.4062V25.7344H9.28125V14.3438Z" fill="#EEBE33"/>
<path id="Vector_11" d="M10.9688 20.1445V25.7344H9.28125V19.4062H10.2305C10.4262 19.4065 10.6139 19.4843 10.7523 19.6227C10.8907 19.7611 10.9685 19.9488 10.9688 20.1445Z" fill="#E88604"/>
<g id="Group_2">
<path id="Vector_12" d="M10.5469 16.4531H12.2344V18.1406H10.5469V16.4531Z" fill="#8ACCE7"/>
<path id="Vector_13" d="M13.5 16.4531H15.1875V18.1406H13.5V16.4531Z" fill="#8ACCE7"/>
<path id="Vector_14" d="M16.4531 16.4531H18.1406V18.1406H16.4531V16.4531Z" fill="#8ACCE7"/>
<path id="Vector_15" d="M10.5469 20.25H12.2344V21.9375H10.5469V20.25Z" fill="#8ACCE7"/>
<path id="Vector_16" d="M13.5 20.25H15.1875V21.9375H13.5V20.25Z" fill="#8ACCE7"/>
<path id="Vector_17" d="M16.4531 20.25H18.1406V21.9375H16.4531V20.25Z" fill="#8ACCE7"/>
</g>
<path id="Vector_18" d="M10.5469 20.25H10.9688V21.9375H10.5469V20.25Z" fill="#379EC3"/>
<path id="Vector_19" d="M19.4062 17.2969H24.0469V25.7344H19.4062V17.2969Z" fill="#396795"/>
<path id="Vector_20" d="M21.0938 18.5625H22.7812V20.25H21.0938V18.5625Z" fill="#8ACCE7"/>
<path id="Vector_21" d="M21.0938 21.5156H22.7812V23.2031H21.0938V21.5156Z" fill="#8ACCE7"/>
<path id="Vector_22" d="M2.42578 19.8281H10.2305C10.3144 19.8281 10.3949 19.8615 10.4542 19.9208C10.5135 19.9801 10.5469 20.0606 10.5469 20.1445V25.7344H2.10938V20.1445C2.10938 20.0606 2.14271 19.9801 2.20205 19.9208C2.26139 19.8615 2.34187 19.8281 2.42578 19.8281Z" fill="#EEDC9A"/>
<path id="Vector_23" d="M3.79688 24.0469H5.48438V25.7344H3.79688V24.0469Z" fill="#8ACCE7"/>
<path id="Vector_24" d="M2.10938 21.0938H10.5469V22.7812H2.10938V21.0938Z" fill="#8ACCE7"/>
<path id="Vector_25" d="M3.375 21.0938H4.21875V22.7812H3.375V21.0938Z" fill="#379EC3"/>
<path id="Vector_26" d="M5.0625 21.0938H5.90625V22.7812H5.0625V21.0938Z" fill="#379EC3"/>
<path id="Vector_27" d="M6.75 21.0938H7.59375V22.7812H6.75V21.0938Z" fill="#379EC3"/>
<path id="Vector_28" d="M8.4375 21.0938H9.28125V22.7812H8.4375V21.0938Z" fill="#379EC3"/>
<path id="Vector_29" d="M13.5 23.2031H15.1875V25.7344H13.5V23.2031Z" fill="#8ACCE7"/>
<path id="Vector_30" d="M0.84375 25.3125H26.1562V26.1562H0.84375V25.3125Z" fill="#395166"/>
<path id="Vector_31" d="M25.7344 5.90625C25.7344 4.67548 25.2455 3.49512 24.3752 2.62483C23.5049 1.75455 22.3245 1.26563 21.0938 1.26562C19.863 1.26563 18.6826 1.75455 17.8123 2.62483C16.942 3.49512 16.4531 4.67548 16.4531 5.90625C16.4531 8.4692 21.0938 13.9219 21.0938 13.9219C21.0938 13.9219 25.7344 8.4692 25.7344 5.90625Z" fill="#E44B4D"/>
<path id="Vector_32" d="M21.0938 8.85938C22.7247 8.85938 24.0469 7.53722 24.0469 5.90625C24.0469 4.27528 22.7247 2.95312 21.0938 2.95312C19.4628 2.95312 18.1406 4.27528 18.1406 5.90625C18.1406 7.53722 19.4628 8.85938 21.0938 8.85938Z" fill="#8ACCE7"/>
</g>
</svg>
