<svg width="70" height="70" viewBox="0 0 70 70" fill="none" xmlns="http://www.w3.org/2000/svg">
<g id="building">
<path id="Vector" d="M12.0312 17.5H31.7188V53.5938H12.0312V17.5Z" fill="#396795"/>
<g id="Group">
<path id="Vector_2" d="M15.3125 20.7812H19.6875V25.1562H15.3125V20.7812Z" fill="#8ACCE7"/>
<path id="Vector_3" d="M24.0625 20.7812H28.4375V25.1562H24.0625V20.7812Z" fill="#8ACCE7"/>
<path id="Vector_4" d="M15.3125 29.5312H19.6875V33.9062H15.3125V29.5312Z" fill="#8ACCE7"/>
<path id="Vector_5" d="M24.0625 29.5312H28.4375V33.9062H24.0625V29.5312Z" fill="#8ACCE7"/>
<path id="Vector_6" d="M15.3125 38.2812H19.6875V42.6562H15.3125V38.2812Z" fill="#8ACCE7"/>
<path id="Vector_7" d="M15.3125 47.0312H19.6875V51.4062H15.3125V47.0312Z" fill="#8ACCE7"/>
</g>
<path id="Vector_8" d="M31.7188 14.2188H12.0312C11.4272 14.2188 10.9375 14.7084 10.9375 15.3125V16.4062C10.9375 17.0103 11.4272 17.5 12.0312 17.5H31.7188C32.3228 17.5 32.8125 17.0103 32.8125 16.4062V15.3125C32.8125 14.7084 32.3228 14.2188 31.7188 14.2188Z" fill="#C4D4E0"/>
<path id="Vector_9" d="M16.4062 8.75H27.3438C27.9239 8.75 28.4803 8.98047 28.8905 9.3907C29.3008 9.80094 29.5312 10.3573 29.5312 10.9375V14.2188H14.2188V10.9375C14.2188 10.3573 14.4492 9.80094 14.8595 9.3907C15.2697 8.98047 15.8261 8.75 16.4062 8.75Z" fill="#396795"/>
<path id="Vector_10" d="M24.0625 37.1875H50.3125V66.7188H24.0625V37.1875Z" fill="#EEBE33"/>
<path id="Vector_11" d="M28.4375 52.2266V66.7188H24.0625V50.3125H26.5234C27.0309 50.3131 27.5174 50.5149 27.8763 50.8737C28.2351 51.2326 28.4369 51.7191 28.4375 52.2266Z" fill="#E88604"/>
<g id="Group_2">
<path id="Vector_12" d="M27.3438 42.6562H31.7188V47.0312H27.3438V42.6562Z" fill="#8ACCE7"/>
<path id="Vector_13" d="M35 42.6562H39.375V47.0312H35V42.6562Z" fill="#8ACCE7"/>
<path id="Vector_14" d="M42.6562 42.6562H47.0312V47.0312H42.6562V42.6562Z" fill="#8ACCE7"/>
<path id="Vector_15" d="M27.3438 52.5H31.7188V56.875H27.3438V52.5Z" fill="#8ACCE7"/>
<path id="Vector_16" d="M35 52.5H39.375V56.875H35V52.5Z" fill="#8ACCE7"/>
<path id="Vector_17" d="M42.6562 52.5H47.0312V56.875H42.6562V52.5Z" fill="#8ACCE7"/>
</g>
<path id="Vector_18" d="M27.3438 52.5H28.4375V56.875H27.3438V52.5Z" fill="#379EC3"/>
<path id="Vector_19" d="M50.3125 44.8438H62.3438V66.7188H50.3125V44.8438Z" fill="#396795"/>
<path id="Vector_20" d="M54.6875 48.125H59.0625V52.5H54.6875V48.125Z" fill="#8ACCE7"/>
<path id="Vector_21" d="M54.6875 55.7812H59.0625V60.1562H54.6875V55.7812Z" fill="#8ACCE7"/>
<path id="Vector_22" d="M6.28906 51.4062H26.5234C26.741 51.4062 26.9496 51.4927 27.1035 51.6465C27.2573 51.8004 27.3438 52.009 27.3438 52.2266V66.7188H5.46875V52.2266C5.46875 52.009 5.55518 51.8004 5.70901 51.6465C5.86285 51.4927 6.0715 51.4062 6.28906 51.4062Z" fill="#EEDC9A"/>
<path id="Vector_23" d="M9.84375 62.3438H14.2188V66.7188H9.84375V62.3438Z" fill="#8ACCE7"/>
<path id="Vector_24" d="M5.46875 54.6875H27.3438V59.0625H5.46875V54.6875Z" fill="#8ACCE7"/>
<path id="Vector_25" d="M8.75 54.6875H10.9375V59.0625H8.75V54.6875Z" fill="#379EC3"/>
<path id="Vector_26" d="M13.125 54.6875H15.3125V59.0625H13.125V54.6875Z" fill="#379EC3"/>
<path id="Vector_27" d="M17.5 54.6875H19.6875V59.0625H17.5V54.6875Z" fill="#379EC3"/>
<path id="Vector_28" d="M21.875 54.6875H24.0625V59.0625H21.875V54.6875Z" fill="#379EC3"/>
<path id="Vector_29" d="M35 60.1562H39.375V66.7188H35V60.1562Z" fill="#8ACCE7"/>
<path id="Vector_30" d="M2.1875 65.625H67.8125V67.8125H2.1875V65.625Z" fill="#395166"/>
<path id="Vector_31" d="M66.7188 15.3125C66.7188 12.1216 65.4512 9.06142 63.1949 6.80512C60.9386 4.54882 57.8784 3.28125 54.6875 3.28125C51.4966 3.28125 48.4364 4.54882 46.1801 6.80512C43.9238 9.06142 42.6563 12.1216 42.6563 15.3125C42.6562 21.9572 54.6875 36.0938 54.6875 36.0938C54.6875 36.0938 66.7188 21.9572 66.7188 15.3125Z" fill="#E44B4D"/>
<path id="Vector_32" d="M54.6875 22.9688C58.9159 22.9688 62.3438 19.5409 62.3438 15.3125C62.3438 11.0841 58.9159 7.65625 54.6875 7.65625C50.4591 7.65625 47.0312 11.0841 47.0312 15.3125C47.0312 19.5409 50.4591 22.9688 54.6875 22.9688Z" fill="#8ACCE7"/>
</g>
</svg>
