<svg width="26" height="26" viewBox="0 0 26 26" fill="none" xmlns="http://www.w3.org/2000/svg">
<g id="ri:instagram-fill">
<path id="Vector" d="M14.1136 2.1693C14.9042 2.16627 15.6947 2.17421 16.4851 2.19314L16.6952 2.20072C16.9379 2.20939 17.1773 2.22022 17.4666 2.23322C18.6192 2.28739 19.4057 2.46939 20.0958 2.73697C20.8108 3.01214 21.4131 3.3848 22.0155 3.98714C22.5662 4.52838 22.9925 5.18308 23.2646 5.90572C23.5321 6.5958 23.7141 7.38338 23.7683 8.53605C23.7813 8.82422 23.7921 9.06472 23.8008 9.30739L23.8073 9.51755C23.8266 10.3075 23.8349 11.0977 23.8322 11.8879L23.8333 12.6961V14.1152C23.836 14.9058 23.8277 15.6963 23.8084 16.4866L23.8019 16.6968C23.7932 16.9395 23.7824 17.1789 23.7694 17.4681C23.7152 18.6208 23.5311 19.4073 23.2646 20.0974C22.9933 20.8208 22.567 21.476 22.0155 22.0171C21.4738 22.5677 20.8187 22.994 20.0958 23.2661C19.4057 23.5337 18.6192 23.7157 17.4666 23.7699C17.1773 23.7829 16.9379 23.7937 16.6952 23.8024L16.4851 23.8089C15.6947 23.8281 14.9042 23.8365 14.1136 23.8338L13.3055 23.8349H11.8874C11.0968 23.8376 10.3063 23.8293 9.51597 23.81L9.30581 23.8035C9.04864 23.7941 8.79152 23.7833 8.53447 23.771C7.38181 23.7168 6.59531 23.5326 5.90414 23.2661C5.18121 22.9946 4.5264 22.5683 3.98556 22.0171C3.43419 21.4757 3.00755 20.8206 2.73539 20.0974C2.46781 19.4073 2.28581 18.6208 2.23164 17.4681C2.21958 17.2111 2.20874 16.954 2.19914 16.6968L2.19372 16.4866C2.17375 15.6963 2.16472 14.9058 2.16664 14.1152V11.8879C2.16362 11.0977 2.17156 10.3075 2.19047 9.51755L2.19806 9.30739C2.20672 9.06472 2.21756 8.82422 2.23056 8.53605C2.28472 7.3823 2.46672 6.59689 2.73431 5.90572C3.00663 5.18272 3.4341 4.5282 3.98664 3.98822C4.52711 3.43653 5.18152 3.00951 5.90414 2.73697C6.59531 2.46939 7.38072 2.28739 8.53447 2.23322L9.30581 2.20072L9.51597 2.1953C10.3059 2.17534 11.0961 2.16631 11.8863 2.16822L14.1136 2.1693ZM13 7.58597C12.2823 7.57582 11.5697 7.70841 10.9037 7.97604C10.2377 8.24367 9.63151 8.641 9.12039 9.14494C8.60927 9.64889 8.20341 10.2494 7.92639 10.9115C7.64936 11.5737 7.50671 12.2843 7.50671 13.0021C7.50671 13.7199 7.64936 14.4305 7.92639 15.0926C8.20341 15.7548 8.60927 16.3553 9.12039 16.8592C9.63151 17.3632 10.2377 17.7605 10.9037 18.0281C11.5697 18.2958 12.2823 18.4284 13 18.4182C14.4366 18.4182 15.8143 17.8475 16.8301 16.8317C17.846 15.8159 18.4166 14.4381 18.4166 13.0016C18.4166 11.565 17.846 10.1872 16.8301 9.17139C15.8143 8.15557 14.4366 7.58597 13 7.58597ZM13 9.75264C13.4317 9.74468 13.8607 9.82283 14.2618 9.98253C14.663 10.1422 15.0283 10.3803 15.3365 10.6827C15.6446 10.9852 15.8894 11.346 16.0565 11.7442C16.2237 12.1423 16.3098 12.5698 16.3098 13.0015C16.3099 13.4333 16.2239 13.8608 16.057 14.259C15.89 14.6572 15.6453 15.0181 15.3373 15.3207C15.0292 15.6233 14.664 15.8614 14.2628 16.0212C13.8617 16.1811 13.4328 16.2594 13.0011 16.2516C12.1391 16.2516 11.3125 15.9091 10.703 15.2997C10.0935 14.6902 9.75106 13.8635 9.75106 13.0016C9.75106 12.1396 10.0935 11.3129 10.703 10.7035C11.3125 10.094 12.1391 9.75155 13.0011 9.75155L13 9.75264ZM18.6875 5.96097C18.338 5.97496 18.0075 6.12363 17.7651 6.37585C17.5228 6.62808 17.3875 6.96428 17.3875 7.31405C17.3875 7.66382 17.5228 8.00003 17.7651 8.25225C18.0075 8.50447 18.338 8.65315 18.6875 8.66714C19.0466 8.66714 19.3911 8.52446 19.645 8.27051C19.899 8.01655 20.0416 7.67212 20.0416 7.31297C20.0416 6.95382 19.899 6.60938 19.645 6.35543C19.3911 6.10147 19.0466 5.9588 18.6875 5.9588V5.96097Z" fill="white"/>
</g>
</svg>
