<svg width="27" height="27" viewBox="0 0 27 27" fill="none" xmlns="http://www.w3.org/2000/svg">
<g id="house" clip-path="url(#clip0_949_1429)">
<path id="Vector" d="M23.859 11.0393V26.8316H3.14062V11.0393L13.5582 0.933594L23.859 11.0393Z" fill="#E9EAEF"/>
<path id="Vector_2" d="M23.9686 3.30614V10.3967L20.4421 7.03821L18.7891 5.46393V3.30614C18.7891 2.8868 19.129 2.54688 19.5483 2.54688H23.2094C23.6287 2.54682 23.9686 2.8868 23.9686 3.30614Z" fill="#9EB1B7"/>
<path id="Vector_3" d="M20.4421 2.54688V7.03826L18.7891 5.46398V3.3062C18.7891 2.88685 19.129 2.54693 19.5483 2.54693L20.4421 2.54688Z" fill="#879BA0"/>
<g id="Group">
<path id="Vector_4" d="M27.0004 24.4001V26.8323H14.4922V24.4001C14.4922 23.9157 14.8851 23.5234 15.3694 23.5234H26.1231C26.6075 23.5234 27.0004 23.9158 27.0004 24.4001Z" fill="#9CCE21"/>
<path id="Vector_5" d="M4.38449 24.4001V26.8323H0V24.4001C0 23.9157 0.392344 23.5234 0.876656 23.5234H3.50721C3.99215 23.5234 4.38449 23.9158 4.38449 24.4001Z" fill="#9CCE21"/>
</g>
<g id="Group_2">
<path id="Vector_6" d="M27.0004 25.2243V26.83H14.4922V25.2243C14.4922 24.7399 14.8851 24.3477 15.3694 24.3477H26.1231C26.6075 24.3476 27.0004 24.7399 27.0004 25.2243Z" fill="#85C10D"/>
<path id="Vector_7" d="M4.38449 25.2243V26.83H0V25.2243C0 24.7399 0.392344 24.3477 0.876656 24.3477H3.50721C3.99215 24.3476 4.38449 24.7399 4.38449 25.2243Z" fill="#85C10D"/>
</g>
<path id="Vector_8" d="M23.859 11.6593V14.6111L13.4998 4.72027L3.14062 14.6111V11.6593L12.6772 2.57683L13.4998 1.8125L14.3219 2.57683L23.859 11.6593Z" fill="#D2D4D8"/>
<path id="Vector_9" d="M13.5005 3.07579L1.7058 14.3366L0.0566406 12.952L12.6781 0.931932L13.5005 0.167969L14.3228 0.931932L26.9443 12.952L25.295 14.3366L13.5005 3.07579Z" fill="#EA4756"/>
<path id="Vector_10" d="M12.5084 15H5.67578V26.8321H12.5084V15Z" fill="#C97523"/>
<path id="Vector_11" d="M22.2731 15H14.4922V21.8326H22.2731V15Z" fill="#A0D9F2"/>
<path id="Vector_12" d="M22.2731 15H14.4922V17.0763H22.2731V15Z" fill="#C97523"/>
<path id="Vector_13" d="M11.161 21.2914H10.1691C9.94085 21.2914 9.75586 21.1064 9.75586 20.8781C9.75586 20.6499 9.94085 20.4648 10.1691 20.4648H11.161C11.3893 20.4648 11.5742 20.6499 11.5742 20.8781C11.5742 21.1064 11.3893 21.2914 11.161 21.2914Z" fill="#8E480E"/>
<path id="Vector_14" d="M13.5005 11.6221C14.5504 11.6221 15.4014 10.7711 15.4014 9.72123C15.4014 8.67138 14.5504 7.82031 13.5005 7.82031C12.4507 7.82031 11.5996 8.67138 11.5996 9.72123C11.5996 10.7711 12.4507 11.6221 13.5005 11.6221Z" fill="#413740"/>
<g id="Group_3">
<path id="Vector_15" d="M12.5077 14.5859H5.675C5.44671 14.5859 5.26172 14.771 5.26172 14.9992V26.8313H6.08822V15.4124H12.0944V26.8312H12.9209V14.9992C12.921 14.7709 12.736 14.5859 12.5077 14.5859Z" fill="#8E480E"/>
<path id="Vector_16" d="M22.2722 14.5859H14.4914C14.2631 14.5859 14.0781 14.771 14.0781 14.9992V21.8319C14.0781 22.0601 14.2631 22.2451 14.4914 22.2451H22.2722C22.5004 22.2451 22.6854 22.0601 22.6854 21.8319V14.9992C22.6854 14.7709 22.5004 14.5859 22.2722 14.5859ZM21.8589 15.4124V16.6621H14.9047V15.4124H21.8589ZM14.9047 21.4186V17.4887H21.8589V21.4186H14.9047Z" fill="#8E480E"/>
</g>
<path id="Vector_17" d="M13.4997 12.0347C12.2237 12.0347 11.1855 10.9966 11.1855 9.7205C11.1855 8.44443 12.2237 7.40625 13.4997 7.40625C14.7758 7.40625 15.8139 8.44438 15.8139 9.7205C15.8139 10.9965 14.7758 12.0347 13.4997 12.0347ZM13.4997 8.23281C12.6795 8.23281 12.0121 8.90016 12.0121 9.7205C12.0121 10.5408 12.6795 11.2081 13.4997 11.2081C14.32 11.2081 14.9874 10.5408 14.9874 9.7205C14.9874 8.90016 14.32 8.23281 13.4997 8.23281Z" fill="#EA4756"/>
</g>
<defs>
<clipPath id="clip0_949_1429">
<rect width="27" height="27" fill="white"/>
</clipPath>
</defs>
</svg>
