<svg width="20" height="20" viewBox="0 0 20 20" fill="none" xmlns="http://www.w3.org/2000/svg">
<g id="pajamas:location">
<path id="Vector" fill-rule="evenodd" clip-rule="evenodd" d="M15.625 7.49897C15.6276 8.70424 15.2404 9.87805 14.5213 10.8452L10 16.874L5.47875 10.8452C4.94938 10.13 4.59724 9.29944 4.45124 8.4217C4.30524 7.54396 4.36955 6.64411 4.63889 5.79605C4.90824 4.948 5.37492 4.17594 6.00062 3.54329C6.62632 2.91064 7.39318 2.43546 8.23821 2.15677C9.08324 1.87808 9.98232 1.80383 10.8616 1.94013C11.7409 2.07642 12.5753 2.41938 13.2963 2.94081C14.0173 3.46225 14.6044 4.14729 15.0092 4.93968C15.414 5.73206 15.625 6.60917 15.625 7.49897ZM17.5 7.49897C17.5 9.17397 16.9513 10.719 16.025 11.9665L11.1713 18.4365L10 19.999L8.8275 18.4365L3.975 11.9665C3.26836 11.0133 2.79797 9.90597 2.60248 8.73561C2.407 7.56524 2.49199 6.3652 2.85049 5.23407C3.20898 4.10294 3.83074 3.07301 4.66468 2.22891C5.49863 1.38481 6.52095 0.750619 7.64765 0.378452C8.77436 0.00628609 9.97329 -0.0932365 11.1459 0.0880618C12.3186 0.26936 13.4315 0.726305 14.3932 1.42135C15.3549 2.1164 16.138 3.02971 16.678 4.08625C17.2181 5.14279 17.4998 6.31239 17.5 7.49897ZM10 9.99897C10.663 9.99897 11.2989 9.73558 11.7678 9.26674C12.2366 8.7979 12.5 8.16201 12.5 7.49897C12.5 6.83593 12.2366 6.20005 11.7678 5.73121C11.2989 5.26236 10.663 4.99897 10 4.99897C9.33696 4.99897 8.70107 5.26236 8.23223 5.73121C7.76339 6.20005 7.5 6.83593 7.5 7.49897C7.5 8.16201 7.76339 8.7979 8.23223 9.26674C8.70107 9.73558 9.33696 9.99897 10 9.99897Z" fill="#565656"/>
</g>
</svg>
