<svg width="50" height="50" viewBox="0 0 50 50" fill="none" xmlns="http://www.w3.org/2000/svg">
<g id="ion:location-sharp">
<path id="Vector" d="M25.3125 4.375C17.2041 4.375 10.625 10.3148 10.625 17.6339C10.625 29.4196 25.3125 45.625 25.3125 45.625C25.3125 45.625 40 29.4196 40 17.6339C40 10.3148 33.4209 4.375 25.3125 4.375ZM25.3125 25C24.1505 25 23.0147 24.6544 22.0485 24.0069C21.0824 23.3594 20.3294 22.439 19.8847 21.3622C19.44 20.2855 19.3237 19.1006 19.5504 17.9575C19.7771 16.8144 20.3366 15.7644 21.1582 14.9403C21.9799 14.1161 23.0267 13.5549 24.1663 13.3275C25.306 13.1001 26.4872 13.2168 27.5608 13.6629C28.6343 14.1089 29.5518 14.8642 30.1974 15.8332C30.8429 16.8023 31.1875 17.9416 31.1875 19.1071C31.1858 20.6695 30.5663 22.1674 29.4649 23.2721C28.3635 24.3769 26.8701 24.9983 25.3125 25Z" fill="#ED257D"/>
</g>
</svg>
