<svg width="50" height="50" viewBox="0 0 50 50" fill="none" xmlns="http://www.w3.org/2000/svg">
<g id="fluent-emoji-high-contrast:telephone">
<g id="Group">
<path id="Vector" d="M45.4462 16.1322L45.9411 18.2556C46.0161 18.5777 46.0161 18.8969 45.9531 19.1973C46.0099 19.4107 46.0152 19.6337 45.9687 19.8493C45.9221 20.0649 45.8251 20.2675 45.6848 20.4414C45.5446 20.6154 45.3648 20.7561 45.1594 20.8529C44.954 20.9497 44.7284 21.0001 44.4997 21H41.1172L38.8928 18.1443V18.1414C38.5368 17.6828 38.0745 17.3107 37.5427 17.0546C37.0109 16.7986 36.4244 16.6657 35.8298 16.6667H35.4998V14.2256C35.4998 13.1827 34.6178 12.3333 33.5349 12.3333H31.4649C30.3819 12.3333 29.4999 13.1827 29.4999 14.2256V16.6522H20.5001V14.2256C20.5001 13.1827 19.6181 12.3333 18.5351 12.3333H16.4651C15.3822 12.3333 14.5002 13.1827 14.5002 14.2256V16.6667H14.1702C12.9582 16.6667 11.8257 17.217 11.0952 18.1544L8.88128 21H5.50033C5.27164 21.0001 5.04597 20.9497 4.84056 20.8529C4.63515 20.7561 4.45545 20.6154 4.3152 20.4414C4.17495 20.2675 4.07786 20.0649 4.03135 19.8493C3.98484 19.6337 3.99014 19.4107 4.04686 19.1973C3.98119 18.8862 3.98528 18.5651 4.05886 18.2556L4.53885 16.1322C5.07357 13.8264 6.40774 11.7647 8.32169 10.2865C10.2356 8.80839 12.6152 8.00195 15.0687 8H34.9313C37.3835 8.00023 39.7623 8.80633 41.6742 10.285C43.5861 11.7637 44.9168 13.8265 45.4462 16.1322Z" fill="#ED257D"/>
<path id="Vector_2" d="M37.69 19.3347L43.18 26.5263C45.0107 28.9184 46.0004 31.8303 46 34.8232V39.7011C46 40.9684 44.95 42 43.66 42H6.34C5.05 42 4 40.9684 4 39.7011V34.8232C4 31.8316 4.99 28.9137 6.82 26.5263L12.295 19.3495C12.745 18.76 13.435 18.4211 14.17 18.4211H15.535C15.79 18.4211 16 18.2147 16 17.9642V14.4568C16 14.2063 16.21 14 16.465 14H18.535C18.79 14 19 14.2063 19 14.4568V17.9642C19 18.2147 19.21 18.4211 19.465 18.4211H30.535C30.79 18.4211 31 18.2147 31 17.9642V14.4568C31 14.2063 31.21 14 31.465 14H33.535C33.79 14 34 14.2063 34 14.4568V17.9642C34 18.2147 34.21 18.4211 34.465 18.4211H35.83C36.565 18.4211 37.255 18.76 37.69 19.3347ZM21.547 25.7895C21.802 25.7895 22.0135 25.5832 21.9985 25.3297V23.3019C21.9981 23.1803 21.9489 23.0638 21.8615 22.9777C21.7742 22.8916 21.6557 22.8429 21.532 22.8421H19.4665C19.2115 22.8421 19 23.0484 19 23.3019V25.3297C19 25.5817 19.21 25.7895 19.483 25.7895H21.547ZM26.047 25.7895C26.1079 25.7899 26.1682 25.7782 26.2244 25.7551C26.2806 25.7319 26.3313 25.6978 26.3737 25.6549C26.416 25.6119 26.4491 25.5609 26.4708 25.505C26.4925 25.4491 26.5024 25.3895 26.5 25.3297V23.3019C26.4992 23.1802 26.4497 23.0637 26.3621 22.9776C26.2745 22.8916 26.1559 22.8429 26.032 22.8421H23.968C23.844 22.8425 23.7252 22.8911 23.6375 22.9772C23.5498 23.0633 23.5004 23.1801 23.5 23.3019V25.3297C23.5 25.5817 23.71 25.7895 23.983 25.7895H26.047ZM28.4815 25.7895H30.547C30.6079 25.7899 30.6682 25.7782 30.7244 25.7551C30.7806 25.7319 30.8313 25.6978 30.8737 25.6549C30.916 25.6119 30.9491 25.5609 30.9708 25.505C30.9925 25.4491 31.0024 25.3895 31 25.3297V23.3019C30.9992 23.1802 30.9497 23.0637 30.8621 22.9776C30.7745 22.8916 30.6559 22.8429 30.532 22.8421H28.4665C28.2115 22.8421 28 23.0484 28 23.3019V25.3297C28 25.5817 28.21 25.7895 28.483 25.7895H28.4815ZM21.547 30.2105C21.802 30.2105 22.0135 30.0042 21.9985 29.7507V27.7229C21.9981 27.6014 21.9489 27.4849 21.8615 27.3988C21.7742 27.3127 21.6557 27.2639 21.532 27.2632H19.4665C19.2115 27.2632 19 27.4695 19 27.7229V29.7507C19 30.0027 19.21 30.2105 19.483 30.2105H21.547ZM23.9815 30.2105H26.047C26.1079 30.211 26.1682 30.1993 26.2244 30.1761C26.2806 30.153 26.3313 30.1189 26.3737 30.0759C26.416 30.0329 26.4491 29.9819 26.4708 29.9261C26.4925 29.8702 26.5024 29.8105 26.5 29.7507V27.7229C26.4992 27.6012 26.4497 27.4847 26.3621 27.3987C26.2745 27.3126 26.1559 27.2639 26.032 27.2632H23.968C23.844 27.2635 23.7252 27.3121 23.6375 27.3983C23.5498 27.4844 23.5004 27.6011 23.5 27.7229V29.7507C23.5 30.0027 23.7085 30.2105 23.9815 30.2105ZM30.547 30.2105C30.6079 30.211 30.6682 30.1993 30.7244 30.1761C30.7806 30.153 30.8313 30.1189 30.8737 30.0759C30.916 30.0329 30.9491 29.9819 30.9708 29.9261C30.9925 29.8702 31.0024 29.8105 31 29.7507V27.7229C30.9992 27.6012 30.9497 27.4847 30.8621 27.3987C30.7745 27.3126 30.6559 27.2639 30.532 27.2632H28.4665C28.2115 27.2632 28 27.4695 28 27.7229V29.7507C28 30.0027 28.21 30.2105 28.483 30.2105H30.547ZM19.4815 34.6316H21.547C21.802 34.6316 22.0135 34.4253 21.9985 34.1718V32.144C21.9981 32.0224 21.9489 31.9059 21.8615 31.8198C21.7742 31.7337 21.6557 31.685 21.532 31.6842H19.4665C19.2115 31.6842 19 31.8905 19 32.144V34.1718C19 34.4238 19.2085 34.6316 19.4815 34.6316ZM26.047 34.6316C26.1079 34.632 26.1682 34.6203 26.2244 34.5972C26.2806 34.5741 26.3313 34.54 26.3737 34.497C26.416 34.454 26.4491 34.403 26.4708 34.3471C26.4925 34.2912 26.5024 34.2316 26.5 34.1718V32.144C26.4992 32.0223 26.4497 31.9058 26.3621 31.8197C26.2745 31.7337 26.1559 31.685 26.032 31.6842H23.968C23.844 31.6846 23.7252 31.7332 23.6375 31.8193C23.5498 31.9055 23.5004 32.0222 23.5 32.144V34.1718C23.5 34.4238 23.71 34.6316 23.983 34.6316H26.047ZM28.4815 34.6316H30.547C30.6079 34.632 30.6682 34.6203 30.7244 34.5972C30.7806 34.5741 30.8313 34.54 30.8737 34.497C30.916 34.454 30.9491 34.403 30.9708 34.3471C30.9925 34.2912 31.0024 34.2316 31 34.1718V32.144C30.9992 32.0223 30.9497 31.9058 30.8621 31.8197C30.7745 31.7337 30.6559 31.685 30.532 31.6842H28.4665C28.2115 31.6842 28 31.8905 28 32.144V34.1718C28 34.4238 28.21 34.6316 28.483 34.6316H28.4815Z" fill="#ED257D"/>
</g>
</g>
</svg>
