<svg width="70" height="70" viewBox="0 0 70 70" fill="none" xmlns="http://www.w3.org/2000/svg">
<g id="resort 1">
<g id="Group">
<g id="Group_2">
<g id="Group_3">
<path id="Vector" d="M45.9375 51.4062H59.0625V61.25H45.9375V51.4062Z" fill="#F06423"/>
</g>
<path id="Vector_2" d="M44.6739 11.4458C44.4733 11.1293 44.1246 10.9375 43.75 10.9375H21.875C21.4518 10.9375 21.0667 11.1815 20.8859 11.5642L2.29219 50.9392C2.13223 51.278 2.15683 51.6752 2.3574 51.9917C2.55783 52.3082 2.9066 52.5 3.28121 52.5H25.1562C25.5794 52.5 25.9645 52.256 26.1452 51.8733L44.739 12.4983C44.8989 12.1595 44.8745 11.7623 44.6739 11.4458Z" fill="#4182C3"/>
<g id="Group_4">
<path id="Vector_3" d="M45.9375 51.4062L27.3438 12.0312L8.75 51.4062V61.25H45.9375V51.4062Z" fill="#FAA019"/>
</g>
<g id="Group_5">
<g id="Group_6">
<path id="Vector_4" d="M8.75 55.7812H45.9375V57.9688H8.75V55.7812Z" fill="#F06423"/>
</g>
<g id="Group_7">
<path id="Vector_5" d="M9.78305 49.2188L8.75 51.4062H45.9375L44.9045 49.2188H9.78305Z" fill="#F06423"/>
</g>
<g id="Group_8">
<path id="Vector_6" d="M42.8391 44.8438L41.8062 42.6562H12.8825L11.8496 44.8438H42.8391Z" fill="#F06423"/>
</g>
<g id="Group_9">
<path id="Vector_7" d="M15.9803 36.0938L14.9473 38.2812H39.739L38.706 36.0938H15.9803Z" fill="#F06423"/>
</g>
<g id="Group_10">
<path id="Vector_8" d="M19.0799 29.5312L18.0469 31.7188H36.6406L35.6076 29.5312H19.0799Z" fill="#F06423"/>
</g>
<g id="Group_11">
<path id="Vector_9" d="M22.1794 22.9688L21.1465 25.1562H33.5422L32.5093 22.9688H22.1794Z" fill="#F06423"/>
</g>
</g>
<g id="Group_12">
<path id="Vector_10" d="M27.3438 41.5625C30.3641 41.5625 32.8125 39.1141 32.8125 36.0938C32.8125 33.0734 30.3641 30.625 27.3438 30.625C24.3234 30.625 21.875 33.0734 21.875 36.0938C21.875 39.1141 24.3234 41.5625 27.3438 41.5625Z" fill="#804B8F"/>
</g>
<g id="Group_13">
<path id="Vector_11" d="M27.3438 39.375C29.1559 39.375 30.625 37.9059 30.625 36.0938C30.625 34.2816 29.1559 32.8125 27.3438 32.8125C25.5316 32.8125 24.0625 34.2816 24.0625 36.0938C24.0625 37.9059 25.5316 39.375 27.3438 39.375Z" fill="#23AAE6"/>
</g>
<g id="Group_14">
<g id="Group_15">
<path id="Vector_12" d="M31.7188 45.9375H22.9688C21.7606 45.9375 20.7812 46.9168 20.7812 48.125V61.25H33.9062V48.125C33.9062 46.9168 32.9269 45.9375 31.7188 45.9375Z" fill="#804B8F"/>
</g>
<g id="Group_16">
<path id="Vector_13" d="M22.9688 48.125H31.7188V61.25H22.9688V48.125Z" fill="#643773"/>
</g>
</g>
<path id="Vector_14" d="M63.3328 50.9392L44.7391 11.5642C44.5583 11.1815 44.1732 10.9375 43.75 10.9375H21.875C21.5004 10.9375 21.1517 11.1293 20.9511 11.4458C20.7505 11.7623 20.7261 12.1595 20.8859 12.4983L39.4796 51.8733C39.6604 52.256 40.0456 52.5 40.4687 52.5H62.3437C62.7183 52.5 63.067 52.3082 63.2676 51.9917C63.4683 51.6752 63.4928 51.278 63.3328 50.9392Z" fill="#23AAE6"/>
<g id="Group_17">
<path id="Vector_15" d="M40.4698 52.5003C40.0598 52.5003 39.6668 52.2687 39.48 51.8733L21.8753 14.5927L4.27055 51.8733C4.01256 52.4195 3.36082 52.6534 2.81449 52.3953C2.2683 52.1374 2.03451 51.4854 2.2925 50.9392L20.8863 11.5642C21.067 11.1815 21.4521 10.9375 21.8753 10.9375C22.2984 10.9375 22.6836 11.1815 22.8643 11.5642L41.458 50.9392C41.716 51.4854 41.4822 52.1373 40.9361 52.3953C40.7853 52.4665 40.6261 52.5003 40.4698 52.5003Z" fill="#5AD7FF"/>
</g>
</g>
<g id="Group_18">
<g id="Group_19">
<path id="Vector_16" d="M59.0624 61.2498H52.4999V36.4367C52.4999 29.3335 49.7338 22.6553 44.7109 17.6326L49.3513 12.9922C52.4457 16.0867 54.8638 19.7056 56.5385 23.7487C58.2133 27.7916 59.0624 32.0605 59.0624 36.4367V61.2498Z" fill="#FAA019"/>
</g>
<g id="Group_20">
<g id="Group_21">
<path id="Vector_17" d="M48.125 21.875C49.9372 21.875 51.4062 20.4059 51.4062 18.5938C51.4062 16.7816 49.9372 15.3125 48.125 15.3125C46.3128 15.3125 44.8438 16.7816 44.8438 18.5938C44.8438 20.4059 46.3128 21.875 48.125 21.875Z" fill="#FAA019"/>
</g>
<g id="Group_22">
<path id="Vector_18" d="M44.8438 24.0625C46.6559 24.0625 48.125 22.5934 48.125 20.7812C48.125 18.9691 46.6559 17.5 44.8438 17.5C43.0316 17.5 41.5625 18.9691 41.5625 20.7812C41.5625 22.5934 43.0316 24.0625 44.8438 24.0625Z" fill="#FAA019"/>
</g>
<g id="Group_23">
<path id="Vector_19" d="M50.3125 27.3438C52.1247 27.3438 53.5938 25.8747 53.5938 24.0625C53.5938 22.2503 52.1247 20.7812 50.3125 20.7812C48.5003 20.7812 47.0312 22.2503 47.0312 24.0625C47.0312 25.8747 48.5003 27.3438 50.3125 27.3438Z" fill="#FFD205"/>
</g>
</g>
<g id="Group_24">
<g id="Group_25">
<path id="Vector_20" d="M45.9375 15.3125H48.125V13.125C48.125 7.08436 43.2281 2.1875 37.1875 2.1875H36.0938C35.4897 2.1875 35 2.67723 35 3.28125V4.375C35 10.4156 39.8969 15.3125 45.9375 15.3125Z" fill="#4B9641"/>
</g>
<g id="Group_26">
<path id="Vector_21" d="M56.875 6.5625H60.1562C64.3847 6.5625 67.8125 9.99031 67.8125 14.2188C67.8125 14.8228 67.3228 15.3125 66.7188 15.3125H48.125C48.125 10.48 52.0425 6.5625 56.875 6.5625Z" fill="#5FAA46"/>
</g>
<g id="Group_27">
<path id="Vector_22" d="M39.375 6.5625H36.0938C31.8653 6.5625 28.4375 9.99031 28.4375 14.2188C28.4375 14.8228 28.9272 15.3125 29.5312 15.3125H48.125C48.125 10.48 44.2075 6.5625 39.375 6.5625Z" fill="#5FAA46"/>
</g>
<g id="Group_28">
<path id="Vector_23" d="M50.3125 13.125H48.125V15.3125C48.125 21.3531 53.0219 26.25 59.0625 26.25H60.1562C60.7603 26.25 61.25 25.7603 61.25 25.1562V24.0625C61.25 18.0219 56.3531 13.125 50.3125 13.125Z" fill="#5FAA46"/>
</g>
<g id="Group_29">
<path id="Vector_24" d="M45.9375 13.125H48.125V15.3125C48.125 21.3531 43.2281 26.25 37.1875 26.25H36.0938C35.4897 26.25 35 25.7603 35 25.1562V24.0625C35 18.0219 39.8969 13.125 45.9375 13.125Z" fill="#5FAA46"/>
</g>
<g id="Group_30">
<path id="Vector_25" d="M57.9688 24.0084V25.1562C57.9688 25.575 57.7333 25.9388 57.3877 26.1226C52.1421 25.3165 48.125 20.7836 48.125 15.3125V13.125C53.6521 13.6738 57.9688 18.337 57.9688 24.0084Z" fill="#91C83C"/>
</g>
<g id="Group_31">
<path id="Vector_26" d="M45.9375 13.125H48.125C42.5979 13.6738 38.2812 18.337 38.2812 24.0084V25.1562C38.2812 25.575 38.5167 25.9388 38.8623 26.1226C38.3163 26.2065 37.7569 26.25 37.1875 26.25H36.0938C35.4897 26.25 35 25.7603 35 25.1562V24.0625C35 18.0219 39.8969 13.125 45.9375 13.125Z" fill="#91C83C"/>
</g>
</g>
<g id="Group_32">
<path id="Vector_27" d="M57.4219 33.3594C58.3279 33.3594 59.0625 34.094 59.0625 35V61.25H55.7812V35C55.7812 34.094 56.5158 33.3594 57.4219 33.3594Z" fill="#F06423"/>
</g>
</g>
<g id="Group_33">
<path id="Vector_28" d="M2.1875 65.625H67.8125C67.8125 63.2088 65.8537 61.25 63.4375 61.25H6.5625C4.14627 61.25 2.1875 63.2088 2.1875 65.625Z" fill="#F0915A"/>
</g>
</g>
</g>
</svg>
