<svg width="27" height="27" viewBox="0 0 27 27" fill="none" xmlns="http://www.w3.org/2000/svg">
<g id="resort">
<g id="Group">
<g id="Group_2">
<g id="Group_3">
<path id="Vector" d="M17.7188 19.8281H22.7812V23.625H17.7188V19.8281Z" fill="#F06423"/>
</g>
<path id="Vector_2" d="M17.2314 4.41482C17.154 4.29274 17.0195 4.21875 16.875 4.21875H8.43748C8.27427 4.21875 8.12572 4.31288 8.056 4.46048L0.884129 19.648C0.82243 19.7787 0.831922 19.9319 0.909283 20.0539C0.986592 20.176 1.12112 20.25 1.26561 20.25H9.70311C9.86632 20.25 10.0149 20.1559 10.0846 20.0083L17.2565 4.82077C17.3182 4.69009 17.3087 4.5369 17.2314 4.41482Z" fill="#4182C3"/>
<g id="Group_4">
<path id="Vector_3" d="M17.7188 19.8281L10.5469 4.64062L3.375 19.8281V23.625H17.7188V19.8281Z" fill="#FAA019"/>
</g>
<g id="Group_5">
<g id="Group_6">
<path id="Vector_4" d="M3.375 21.5156H17.7188V22.3594H3.375V21.5156Z" fill="#F06423"/>
</g>
<g id="Group_7">
<path id="Vector_5" d="M3.77346 18.9844L3.375 19.8281H17.7188L17.3203 18.9844H3.77346Z" fill="#F06423"/>
</g>
<g id="Group_8">
<path id="Vector_6" d="M16.5234 17.2969L16.125 16.4531H4.96872L4.57031 17.2969H16.5234Z" fill="#F06423"/>
</g>
<g id="Group_9">
<path id="Vector_7" d="M6.16409 13.9219L5.76562 14.7656H15.3282L14.9297 13.9219H6.16409Z" fill="#F06423"/>
</g>
<g id="Group_10">
<path id="Vector_8" d="M7.3594 11.3906L6.96094 12.2344H14.1328L13.7344 11.3906H7.3594Z" fill="#F06423"/>
</g>
<g id="Group_11">
<path id="Vector_9" d="M8.55466 8.85938L8.15625 9.70312H12.9375L12.5391 8.85938H8.55466Z" fill="#F06423"/>
</g>
</g>
<g id="Group_12">
<path id="Vector_10" d="M10.5469 16.0312C11.7119 16.0312 12.6562 15.0869 12.6562 13.9219C12.6562 12.7569 11.7119 11.8125 10.5469 11.8125C9.3819 11.8125 8.4375 12.7569 8.4375 13.9219C8.4375 15.0869 9.3819 16.0312 10.5469 16.0312Z" fill="#804B8F"/>
</g>
<g id="Group_13">
<path id="Vector_11" d="M10.5469 15.1875C11.2459 15.1875 11.8125 14.6209 11.8125 13.9219C11.8125 13.2229 11.2459 12.6562 10.5469 12.6562C9.84789 12.6562 9.28125 13.2229 9.28125 13.9219C9.28125 14.6209 9.84789 15.1875 10.5469 15.1875Z" fill="#23AAE6"/>
</g>
<g id="Group_14">
<g id="Group_15">
<path id="Vector_12" d="M12.2344 17.7188H8.85938C8.39336 17.7188 8.01562 18.0965 8.01562 18.5625V23.625H13.0781V18.5625C13.0781 18.0965 12.7004 17.7188 12.2344 17.7188Z" fill="#804B8F"/>
</g>
<g id="Group_16">
<path id="Vector_13" d="M8.85938 18.5625H12.2344V23.625H8.85938V18.5625Z" fill="#643773"/>
</g>
</g>
<path id="Vector_14" d="M24.4284 19.648L17.2565 4.46048C17.1868 4.31288 17.0382 4.21875 16.875 4.21875H8.43752C8.29302 4.21875 8.1585 4.29274 8.08114 4.41482C8.00378 4.5369 7.99434 4.69009 8.05598 4.82077L15.2279 20.0083C15.2976 20.1559 15.4462 20.25 15.6093 20.25H24.0468C24.1913 20.25 24.3259 20.176 24.4032 20.0539C24.4806 19.9319 24.4901 19.7787 24.4284 19.648Z" fill="#23AAE6"/>
<g id="Group_17">
<path id="Vector_15" d="M15.6098 20.2501C15.4516 20.2501 15.3 20.1608 15.228 20.0083L8.43761 5.6286L1.64721 20.0083C1.5477 20.2189 1.29632 20.3092 1.08559 20.2096C0.874916 20.1102 0.784741 19.8587 0.88425 19.648L8.05613 4.46048C8.12584 4.31288 8.27439 4.21875 8.43761 4.21875C8.60082 4.21875 8.74937 4.31288 8.81909 4.46048L15.991 19.648C16.0905 19.8587 16.0003 20.1101 15.7896 20.2096C15.7315 20.2371 15.6701 20.2501 15.6098 20.2501Z" fill="#5AD7FF"/>
</g>
</g>
<g id="Group_18">
<g id="Group_19">
<path id="Vector_16" d="M22.7817 23.6254H20.2504V14.0546C20.2504 11.3148 19.1835 8.73893 17.2461 6.80158L19.036 5.01172C20.2295 6.20531 21.1622 7.60119 21.8081 9.16065C22.4541 10.7201 22.7817 12.3666 22.7817 14.0546V23.6254Z" fill="#FAA019"/>
</g>
<g id="Group_20">
<g id="Group_21">
<path id="Vector_17" d="M18.5625 8.4375C19.2615 8.4375 19.8281 7.87086 19.8281 7.17188C19.8281 6.47289 19.2615 5.90625 18.5625 5.90625C17.8635 5.90625 17.2969 6.47289 17.2969 7.17188C17.2969 7.87086 17.8635 8.4375 18.5625 8.4375Z" fill="#FAA019"/>
</g>
<g id="Group_22">
<path id="Vector_18" d="M17.2969 9.28125C17.9959 9.28125 18.5625 8.71461 18.5625 8.01562C18.5625 7.31664 17.9959 6.75 17.2969 6.75C16.5979 6.75 16.0312 7.31664 16.0312 8.01562C16.0312 8.71461 16.5979 9.28125 17.2969 9.28125Z" fill="#FAA019"/>
</g>
<g id="Group_23">
<path id="Vector_19" d="M19.4062 10.5469C20.1052 10.5469 20.6719 9.98024 20.6719 9.28125C20.6719 8.58226 20.1052 8.01562 19.4062 8.01562C18.7073 8.01562 18.1406 8.58226 18.1406 9.28125C18.1406 9.98024 18.7073 10.5469 19.4062 10.5469Z" fill="#FFD205"/>
</g>
</g>
<g id="Group_24">
<g id="Group_25">
<path id="Vector_20" d="M17.7188 5.90625H18.5625V5.0625C18.5625 2.73254 16.6737 0.84375 14.3438 0.84375H13.9219C13.6889 0.84375 13.5 1.03264 13.5 1.26562V1.6875C13.5 4.01746 15.3888 5.90625 17.7188 5.90625Z" fill="#4B9641"/>
</g>
<g id="Group_26">
<path id="Vector_21" d="M21.9375 2.53125H23.2031C24.8341 2.53125 26.1562 3.85341 26.1562 5.48438C26.1562 5.71736 25.9674 5.90625 25.7344 5.90625H18.5625C18.5625 4.0423 20.0736 2.53125 21.9375 2.53125Z" fill="#5FAA46"/>
</g>
<g id="Group_27">
<path id="Vector_22" d="M15.1875 2.53125H13.9219C12.2909 2.53125 10.9688 3.85341 10.9688 5.48438C10.9688 5.71736 11.1576 5.90625 11.3906 5.90625H18.5625C18.5625 4.0423 17.0514 2.53125 15.1875 2.53125Z" fill="#5FAA46"/>
</g>
<g id="Group_28">
<path id="Vector_23" d="M19.4062 5.0625H18.5625V5.90625C18.5625 8.23621 20.4513 10.125 22.7812 10.125H23.2031C23.4361 10.125 23.625 9.93611 23.625 9.70312V9.28125C23.625 6.95129 21.7362 5.0625 19.4062 5.0625Z" fill="#5FAA46"/>
</g>
<g id="Group_29">
<path id="Vector_24" d="M17.7188 5.0625H18.5625V5.90625C18.5625 8.23621 16.6737 10.125 14.3438 10.125H13.9219C13.6889 10.125 13.5 9.93611 13.5 9.70312V9.28125C13.5 6.95129 15.3888 5.0625 17.7188 5.0625Z" fill="#5FAA46"/>
</g>
<g id="Group_30">
<path id="Vector_25" d="M22.3594 9.26037V9.70313C22.3594 9.86465 22.2686 10.005 22.1353 10.0759C20.1119 9.76493 18.5625 8.01652 18.5625 5.90625V5.0625C20.6944 5.27418 22.3594 7.07284 22.3594 9.26037Z" fill="#91C83C"/>
</g>
<g id="Group_31">
<path id="Vector_26" d="M17.7188 5.0625H18.5625C16.4306 5.27418 14.7656 7.07284 14.7656 9.26037V9.70312C14.7656 9.86465 14.8564 10.005 14.9897 10.0759C14.7791 10.1082 14.5634 10.125 14.3438 10.125H13.9219C13.6889 10.125 13.5 9.93611 13.5 9.70312V9.28125C13.5 6.95129 15.3888 5.0625 17.7188 5.0625Z" fill="#91C83C"/>
</g>
</g>
<g id="Group_32">
<path id="Vector_27" d="M22.1484 12.8672C22.4979 12.8672 22.7812 13.1505 22.7812 13.5V23.625H21.5156V13.5C21.5156 13.1505 21.799 12.8672 22.1484 12.8672Z" fill="#F06423"/>
</g>
</g>
<g id="Group_33">
<path id="Vector_28" d="M0.84375 25.3125H26.1562C26.1562 24.3805 25.4007 23.625 24.4688 23.625H2.53125C1.59928 23.625 0.84375 24.3805 0.84375 25.3125Z" fill="#F0915A"/>
</g>
</g>
</g>
</svg>
