<svg width="27" height="27" viewBox="0 0 27 27" fill="none" xmlns="http://www.w3.org/2000/svg">
<g id="room-mate" clip-path="url(#clip0_949_1313)">
<path id="Vector" d="M17.5527 4.51641V2.26641C17.5527 2.01891 17.7552 1.81641 18.0027 1.81641H20.2527C20.5002 1.81641 20.7027 2.01891 20.7027 2.26641V7.20291L17.5527 4.51641Z" fill="#DB4642"/>
<path id="Vector_2" d="M23.4016 25.2195V10.8195L13.5016 2.26953L3.60156 10.8195V25.2195H23.4016Z" fill="#E8E8E8"/>
<path id="Vector_3" d="M26.3669 11.7188H23.401L13.5014 3.38475L3.601 11.7188H0.635947C0.464947 11.7188 0.383947 11.5028 0.518947 11.3903L13.2044 0.57675C13.3754 0.43275 13.6274 0.43275 13.7984 0.57675L26.4884 11.3948C26.6144 11.5028 26.5379 11.7188 26.3669 11.7188Z" fill="#EF564B"/>
<path id="Vector_4" d="M12.6008 16.1992V14.8492C12.6008 13.1095 11.1905 11.6992 9.45078 11.6992C7.71108 11.6992 6.30078 13.1095 6.30078 14.8492V16.1992H12.6008Z" fill="#7A392E"/>
<path id="Vector_5" d="M13.5004 25.1992V21.5677C13.5004 20.6092 12.8839 19.7677 11.9704 19.4752L10.4899 19.0117H8.41089L6.93039 19.4752C6.01689 19.7677 5.40039 20.6092 5.40039 21.5677V25.1992H13.5004Z" fill="#3E7EFC"/>
<path id="Vector_6" d="M20.7004 16.1992V14.8492C20.7004 13.1095 19.2901 11.6992 17.5504 11.6992C15.8107 11.6992 14.4004 13.1095 14.4004 14.8492V16.1992H20.7004Z" fill="#7A392E"/>
<path id="Vector_7" d="M21.6 25.1992V21.5677C21.6 20.6092 20.9835 19.7677 20.07 19.4752L18.5895 19.0117H16.5105L15.03 19.4752C14.1165 19.7677 13.5 20.6092 13.5 21.5677V25.1992H21.6Z" fill="#F4AD3B"/>
<path id="Vector_8" d="M6.93078 15.5719C6.58203 15.5719 6.30078 15.8532 6.30078 16.2019C6.30078 16.5507 6.58203 16.8319 6.93078 16.8319L7.04193 17.4975C7.11303 17.9241 7.35423 18.303 7.71288 18.5446C8.13903 18.8322 8.76363 19.3519 9.45078 19.3519C10.1379 19.3519 10.7621 18.8322 11.1887 18.5446C11.5473 18.303 11.7881 17.9241 11.8596 17.4975L11.9708 16.8319C12.3195 16.8319 12.6008 16.5507 12.6008 16.2019C12.6008 15.8532 12.3195 15.5719 11.9708 15.5719C11.9708 15.1552 11.7174 14.7997 11.3786 14.7516C10.9038 14.6841 10.2221 14.5257 9.63168 14.1549C9.51873 14.0838 9.38238 14.0838 9.26898 14.1549C8.67858 14.5257 7.99683 14.6841 7.52208 14.7516C7.18323 14.7997 6.92988 15.1548 6.92988 15.5719H6.93078Z" fill="#FFAC9C"/>
<path id="Vector_9" d="M15.0304 15.5719C14.6816 15.5719 14.4004 15.8532 14.4004 16.2019C14.4004 16.5507 14.6816 16.8319 15.0304 16.8319L15.1415 17.4975C15.2126 17.9241 15.4538 18.303 15.8125 18.5446C16.2386 18.8322 16.8632 19.3519 17.5504 19.3519C18.2375 19.3519 18.8617 18.8322 19.2883 18.5446C19.6469 18.303 19.8877 17.9241 19.9592 17.4975L20.0704 16.8319C20.4191 16.8319 20.7004 16.5507 20.7004 16.2019C20.7004 15.8532 20.4191 15.5719 20.0704 15.5719C20.0704 15.1552 19.817 14.7997 19.4782 14.7516C19.0034 14.6841 18.3217 14.5257 17.7313 14.1549C17.6183 14.0838 17.482 14.0838 17.3686 14.1549C16.7782 14.5257 16.0964 14.6841 15.6217 14.7516C15.2828 14.7997 15.0295 15.1548 15.0295 15.5719H15.0304Z" fill="#BC674A"/>
<path id="Vector_10" d="M25.2016 24.7695H1.80156C1.55303 24.7695 1.35156 24.971 1.35156 25.2195V26.1195C1.35156 26.3681 1.55303 26.5695 1.80156 26.5695H25.2016C25.4501 26.5695 25.6516 26.3681 25.6516 26.1195V25.2195C25.6516 24.971 25.4501 24.7695 25.2016 24.7695Z" fill="#384149"/>
</g>
<defs>
<clipPath id="clip0_949_1313">
<rect width="27" height="27" fill="white"/>
</clipPath>
</defs>
</svg>
