<svg width="18" height="18" viewBox="0 0 18 18" fill="none" xmlns="http://www.w3.org/2000/svg">
<path d="M10.2987 2.63297L11.6187 5.27297C11.7987 5.64047 12.2787 5.99297 12.6837 6.06047L15.0762 6.45797C16.6062 6.71297 16.9662 7.82297 15.8637 8.91797L14.0037 10.778C13.6887 11.093 13.5162 11.7005 13.6137 12.1355L14.1462 14.438C14.5662 16.2605 13.5987 16.9655 11.9862 16.013L9.74365 14.6855C9.33865 14.4455 8.67115 14.4455 8.25865 14.6855L6.01615 16.013C4.41115 16.9655 3.43615 16.253 3.85615 14.438L4.38865 12.1355C4.48615 11.7005 4.31365 11.093 3.99865 10.778L2.13865 8.91797C1.04365 7.82297 1.39615 6.71297 2.92615 6.45797L5.31865 6.06047C5.71615 5.99297 6.19615 5.64047 6.37615 5.27297L7.69615 2.63297C8.41615 1.20047 9.58615 1.20047 10.2987 2.63297Z" fill="#F9B70E"/>
</svg>
