<svg width="26" height="26" viewBox="0 0 26 26" fill="none" xmlns="http://www.w3.org/2000/svg">
<g id="formkit:twitter" clip-path="url(#clip0_38_276)">
<path id="Vector" d="M13 0C20.1871 0 26 5.81286 26 13C26 20.1871 20.1871 26 13 26C5.81286 26 0 20.1871 0 13C0 5.81286 5.81286 0 13 0ZM10.6229 19.8529C16.38 19.8529 19.5371 15.08 19.5371 10.9386V10.53C20.15 10.0843 20.6886 9.52714 21.0971 8.89571C20.54 9.13714 19.9271 9.30429 19.2957 9.39714C19.9457 9.00714 20.4471 8.39429 20.67 7.67C20.0571 8.02286 19.3886 8.28286 18.6829 8.43143C18.1071 7.81857 17.29 7.44714 16.3986 7.44714C14.6714 7.44714 13.26 8.85857 13.26 10.5857C13.26 10.8271 13.2786 11.0686 13.3529 11.2914C10.7529 11.1614 8.43143 9.91714 6.89 8.02286C6.63 8.48714 6.46286 9.02571 6.46286 9.60143C6.46286 10.6786 7.02 11.6443 7.85571 12.2014C7.33571 12.2014 6.85286 12.0529 6.44429 11.8114V11.8486C6.44429 13.3714 7.52143 14.6343 8.95143 14.9314C8.69143 15.0057 8.41286 15.0429 8.13429 15.0429C7.93 15.0429 7.74429 15.0243 7.54 14.9871C7.93 16.2314 9.1 17.1414 10.4557 17.16C9.37857 17.9957 8.02286 18.4971 6.55571 18.4971C6.29571 18.4971 6.05429 18.4971 5.81286 18.46C7.18714 19.3514 8.84 19.8714 10.6043 19.8714" fill="white"/>
</g>
<defs>
<clipPath id="clip0_38_276">
<rect width="26" height="26" fill="white"/>
</clipPath>
</defs>
</svg>
