<svg width="11" height="11" viewBox="0 0 11 11" fill="none" xmlns="http://www.w3.org/2000/svg">
<g clip-path="url(#clip0_973_1328)">
<path d="M8.07032 2.64921C8.07032 3.37724 7.80923 4.00742 7.2942 4.52254C6.77916 5.03758 6.1489 5.29867 5.42086 5.29867H5.4196C4.69249 5.29842 4.06264 5.03733 3.54761 4.52254C3.03249 4.00742 2.77148 3.37724 2.77148 2.64921C2.77148 1.92142 3.03249 1.29116 3.54761 0.776123C4.06239 0.261253 4.69224 0.000251771 5.4196 0H5.42086C6.14864 0 6.77891 0.261086 7.2942 0.776123C7.80923 1.29116 8.07032 1.92142 8.07032 2.64921Z" fill="#FFBB85"/>
<path d="M10.0798 9.10913C10.0798 9.6835 9.89708 10.1485 9.53722 10.491C9.18155 10.8295 8.71116 11.0009 8.13922 11.0009H2.84265C2.27071 11.0009 1.80032 10.8295 1.44491 10.491C1.08479 10.1483 0.902344 9.68333 0.902344 9.10913C0.902344 8.88824 0.909645 8.66971 0.924248 8.45956C0.939102 8.24472 0.969147 8.01091 1.01346 7.76426C1.05811 7.51559 1.11551 7.28053 1.18424 7.06568C1.25558 6.84328 1.35209 6.62391 1.47151 6.41376C1.59555 6.19565 1.74124 6.00565 1.90456 5.84921C2.07576 5.68548 2.28506 5.55397 2.52702 5.45813C2.76813 5.36279 3.03542 5.31445 3.32143 5.31445C3.43364 5.31445 3.54232 5.36036 3.75179 5.49682C3.88288 5.58234 4.03394 5.67969 4.2007 5.78627C4.34471 5.87808 4.53975 5.96419 4.78086 6.04198C4.99277 6.11055 5.20786 6.14882 5.42036 6.15545C5.44377 6.15629 5.46719 6.15671 5.4906 6.15671C5.72659 6.15671 5.96527 6.11802 6.20059 6.04198C6.4417 5.96419 6.63699 5.87808 6.78092 5.78627C6.94944 5.6786 7.1005 5.58133 7.22966 5.49707C7.4393 5.36036 7.54781 5.31445 7.66027 5.31445C7.94603 5.31445 8.21333 5.36279 8.45461 5.45813C8.69656 5.55397 8.90586 5.68573 9.0769 5.84921C9.24046 6.00565 9.38615 6.19565 9.51011 6.41376C9.62962 6.62408 9.7263 6.84328 9.79738 7.06543C9.8662 7.28053 9.92377 7.51559 9.96841 7.76443C10.0125 8.01133 10.0426 8.24514 10.0574 8.4594C10.0722 8.66887 10.0795 8.88741 10.0798 9.10913Z" fill="#6AA9FF"/>
<path d="M5.42216 5.29867H5.4209V0H5.42216C6.14994 0 6.7802 0.261086 7.29549 0.776123C7.81053 1.29116 8.07162 1.92142 8.07162 2.64921C8.07162 3.37724 7.81053 4.00742 7.29549 4.52254C6.78046 5.03758 6.15019 5.29867 5.42216 5.29867Z" fill="#F5A86C"/>
<path d="M10.0803 9.10913C10.0803 9.6835 9.89762 10.1485 9.53776 10.491C9.18209 10.8295 8.7117 11.0009 8.13976 11.0009H5.4209V6.15545C5.44431 6.15629 5.46773 6.15671 5.49114 6.15671C5.72713 6.15671 5.96581 6.11802 6.20113 6.04198C6.44225 5.96419 6.63754 5.87808 6.78146 5.78627C6.94998 5.6786 7.10104 5.58133 7.2302 5.49707C7.43984 5.36036 7.54836 5.31445 7.66081 5.31445C7.94657 5.31445 8.21387 5.36279 8.45515 5.45813C8.6971 5.55397 8.9064 5.68573 9.07744 5.84921C9.241 6.00565 9.3867 6.19565 9.51065 6.41376C9.63016 6.62408 9.72684 6.84328 9.79792 7.06543C9.86674 7.28053 9.92431 7.51559 9.96896 7.76443C10.013 8.01133 10.0431 8.24514 10.0579 8.4594C10.0728 8.66887 10.0801 8.88741 10.0803 9.10913Z" fill="#2682FF"/>
</g>
<defs>
<clipPath id="clip0_973_1328">
<rect width="11" height="11" fill="white"/>
</clipPath>
</defs>
</svg>
